<?xml version="1.0" standalone="no"?>
<!DOCTYPE svg PUBLIC "-//W3C//DTD SVG 20010904//EN"
 "http://www.w3.org/TR/2001/REC-SVG-20010904/DTD/svg10.dtd">
<svg version="1.0" xmlns="http://www.w3.org/2000/svg"
 width="124.000000pt" height="124.000000pt" viewBox="0 0 124.000000 124.000000"
 preserveAspectRatio="xMidYMid meet">
<metadata>
Created by potrace 1.11, written by Peter Selinger 2001-2013
</metadata>
<g transform="translate(0.000000,124.000000) scale(0.100000,-0.100000)"
fill="#000000" stroke="none">
<path d="M410 1144 c-113 -47 -209 -89 -213 -93 -13 -13 -177 -412 -177 -431
0 -16 19 -70 41 -115 5 -11 33 -80 63 -153 29 -72 60 -141 67 -152 12 -16 410
-190 436 -190 16 0 418 172 429 183 17 19 174 403 174 426 0 25 -156 410 -174
428 -12 13 -414 183 -431 183 -5 -1 -102 -39 -215 -86z m403 -60 c100 -42 186
-80 191 -84 5 -5 44 -92 86 -194 l77 -185 -77 -186 c-42 -102 -81 -189 -86
-194 -5 -5 -92 -44 -193 -86 l-184 -77 -191 79 -191 79 -77 185 c-43 101 -78
191 -78 199 0 8 35 98 78 199 l77 184 185 78 c102 43 188 78 193 78 4 1 89
-33 190 -75z"/>
<path d="M370 620 l0 -360 103 0 103 0 -1 93 c-1 50 0 97 2 103 2 5 25 10 51
9 l47 -1 0 -99 0 -100 105 0 105 0 0 355 0 355 -102 3 c-78 2 -103 0 -104 -10
0 -7 -1 -89 -1 -181 l0 -168 -52 3 -51 3 0 175 0 175 -102 3 -103 3 0 -361z"/>
</g>
</svg>
