<?xml version="1.0" encoding="utf-8"?>
<!-- Generator: Adobe Illustrator 19.2.1, SVG Export Plug-In . SVG Version: 6.00 Build 0)  -->
<svg version="1.1" id="Layer_1" xmlns="http://www.w3.org/2000/svg" xmlns:xlink="http://www.w3.org/1999/xlink" x="0px" y="0px"
	 viewBox="0 0 311 139" style="enable-background:new 0 0 311 139;" xml:space="preserve">
<style type="text/css">
	.st0{fill:none;}
</style>
<polygon class="st0" points="67.5,14.1 29.2,30 13.3,68.3 29.2,106.6 67.5,122.5 105.8,106.6 106.8,104.2 100,104.2 100,32.4 
	106.8,32.4 105.8,30 "/>
<path d="M105.8,106.6l-38.3,15.9l-38.3-15.9L13.3,68.3L29.2,30l38.3-15.9L105.8,30l1,2.4h7.2l-2.6-6.2c-0.3-0.8-1-1.5-1.8-1.8
	L68.7,7.5c-0.8-0.3-1.7-0.3-2.5,0L25.4,24.4c-0.8,0.3-1.5,1-1.8,1.8L6.7,67c-0.3,0.8-0.3,1.7,0,2.5l16.9,40.8c0.3,0.8,1,1.5,1.8,1.8
	l40.8,16.9c0.4,0.2,0.8,0.3,1.3,0.3s0.9-0.1,1.3-0.3l40.8-16.9c0.8-0.3,1.5-1,1.8-1.8l2.8-6.7H107L105.8,106.6z"/>
<g>
	<path d="M62.4,83.3v20.5H41.8V32.1h20.5v35.9h10.3V32.1h20.5v71.8H72.6V83.3H62.4z"/>
	<path d="M167.8,98.7l-0.7,5.1h-20.5L162,32.1h20.5l15.4,71.8h-20.5l-0.6-5.1H167.8z M174.9,83.3l-2.6-20.5l-2.6,20.5H174.9z"/>
	<path d="M229,32.1c7.1,0,13.1,2,18.1,6c5,4,7.5,8.8,7.5,14.5v5.1c0,4.9-1.9,9.2-5.6,12.8c3.7,3.7,5.6,7.9,5.6,12.8V109l-20.5-5.1
		V83.3c0-1.4-0.5-2.6-1.5-3.6c-1-1-2.2-1.5-3.6-1.5h-5.1v25.6h-20.5V32.1H229z M234.1,52.6c0-1.4-0.5-2.6-1.5-3.6
		c-1-1-2.2-1.5-3.6-1.5h-5.1v15.4h5.1c1.4,0,2.6-0.5,3.6-1.5c1-1,1.5-2.2,1.5-3.6V52.6z"/>
	<path d="M290.8,47.4v56.4h-20.5V47.4H260V32.1h41v15.4H290.8z"/>
	<polygon points="121.6,47.4 142.1,47.4 142.1,32.1 115,32.1 107.9,32.1 101.1,32.1 101.1,103.8 107.9,103.8 115,103.8 142.1,103.8 
		142.1,88.5 121.6,88.5 121.6,87.9 121.6,78.2 125.6,78.2 137,78.2 142.1,62.8 127.8,62.8 121.6,62.8 121.6,48 	"/>
</g>
</svg>
