<?xml version="1.0" encoding="utf-8"?>
<!-- Generator: Adobe Illustrator 19.2.1, SVG Export Plug-In . SVG Version: 6.00 Build 0)  -->
<svg version="1.1" id="Layer_1" xmlns="http://www.w3.org/2000/svg" xmlns:xlink="http://www.w3.org/1999/xlink" x="0px" y="0px"
	 viewBox="0 0 144 144" style="enable-background:new 0 0 144 144;" xml:space="preserve">
<style type="text/css">
	.st0{fill:#FFFFFF;}
</style>
<path class="st0" d="M124.1,11.1H21.3c-6.2,0-11.3,5.1-11.3,11.3v102.8c0,6.2,5.1,11.3,11.3,11.3h102.8c6.2,0,11.3-5.1,11.3-11.3
	V22.4C135.4,16.2,130.3,11.1,124.1,11.1z M73.3,49.5c13.5,0,24,10.5,24,24c0,13.2-10.6,23.8-23.9,23.8c-13.5,0-24-10.5-23.9-24.1
	C49.4,60,59.9,49.5,73.3,49.5z M114.7,121.6c-27.6,0-55.2,0-82.8,0c-5.4,0-6.9-1.5-6.9-6.9c0-15.8,0-31.6,0-47.4c0-1,0.1-2,0.1-3.2
	c3.5,0,6.8,0,10.4,0c-2.8,14.4,0.4,27,11,37.3c7.5,7.3,16.8,10.6,27.3,10.7c20.5,0.1,43.1-19.1,37.3-48c0.9-0.1,1.9-0.1,2.8-0.2
	c2.4,0,4.8,0,7.4,0c0.1,1.3,0.2,2.3,0.2,3.3c0,15.9,0,31.8,0,47.7C121.5,120.1,120,121.6,114.7,121.6z M121.5,43.6
	c-0.1,3.8-1.8,5.5-5.6,5.6c-4.3,0.1-8.5,0.1-12.8,0c-3.7-0.1-5.3-1.8-5.5-5.4c0-0.2,0-0.4,0-0.6c0-2,0-4,0-5.9c0,0,0,0,0,0
	c0-2.3-0.1-4.6,0-6.9c0.2-3.2,1.9-5,5.1-5.1c4.5-0.1,9-0.1,13.4,0c3.5,0.1,5.3,2,5.3,5.6C121.6,35.1,121.6,39.4,121.5,43.6z"/>
</svg>
